<?xml version="1.0" encoding="iso-8859-1"?>
<!-- Uploaded to: SVG Repo, www.svgrepo.com, Generator: SVG Repo Mixer Tools -->
<svg version="1.1" id="Layer_1" xmlns="http://www.w3.org/2000/svg" xmlns:xlink="http://www.w3.org/1999/xlink" 
	 viewBox="0 0 512 512" xml:space="preserve">
<rect x="10.199" y="119.443" style="fill:#FFD890;" width="491.602" height="273.114"/>
<g>
	<path style="fill:#947C7C;" d="M179.506,334.534H63.235v-16.658c0-27.976,22.68-50.656,50.656-50.656h14.959
		c27.976,0,50.656,22.68,50.656,50.656v16.658H179.506z"/>
	<circle style="fill:#947C7C;" cx="121.371" cy="221.833" r="44.367"/>
</g>
<g>
	<path style="fill:#4C1D1D;" d="M501.801,109.245H10.199C4.566,109.245,0,113.811,0,119.444v273.111
		c0,5.633,4.566,10.199,10.199,10.199h491.602c5.633,0,10.199-4.566,10.199-10.199V119.444
		C512,113.811,507.434,109.245,501.801,109.245z M491.602,382.357H20.398V129.644h471.203V382.357z"/>
	<path style="fill:#4C1D1D;" d="M440.606,205.826h6.12c5.633,0,10.199-4.566,10.199-10.199s-4.566-10.199-10.199-10.199h-6.12
		c-5.633,0-10.199,4.566-10.199,10.199S434.974,205.826,440.606,205.826z"/>
	<path style="fill:#4C1D1D;" d="M237.113,205.826h162.696c5.633,0,10.199-4.566,10.199-10.199s-4.566-10.199-10.199-10.199H237.113
		c-5.633,0-10.199,4.566-10.199,10.199S231.48,205.826,237.113,205.826z"/>
	<path style="fill:#4C1D1D;" d="M237.113,266.598h209.612c5.633,0,10.199-4.566,10.199-10.199c0-5.633-4.566-10.199-10.199-10.199
		H237.113c-5.633,0-10.199,4.566-10.199,10.199S231.48,266.598,237.113,266.598z"/>
	<path style="fill:#4C1D1D;" d="M237.113,326.574h209.612c5.633,0,10.199-4.566,10.199-10.199c0-5.633-4.566-10.199-10.199-10.199
		H237.113c-5.633,0-10.199,4.566-10.199,10.199C226.914,322.008,231.48,326.574,237.113,326.574z"/>
	<path style="fill:#4C1D1D;" d="M63.235,344.734h116.271c5.633,0,10.199-4.566,10.199-10.199v-16.658
		c0-23.646-13.565-44.171-33.315-54.239c11.938-10.018,19.546-25.036,19.546-41.802c0-30.088-24.478-54.566-54.566-54.566
		s-54.566,24.478-54.566,54.566c0,16.766,7.608,31.786,19.546,41.802c-19.75,10.069-33.315,30.592-33.315,54.239v16.658
		C53.036,340.167,57.602,344.734,63.235,344.734z M121.371,187.666c18.84,0,34.167,15.327,34.167,34.167
		s-15.327,34.167-34.167,34.167s-34.167-15.327-34.167-34.167S102.531,187.666,121.371,187.666z M73.434,317.876
		c0-22.309,18.148-40.457,40.457-40.457h14.959c22.308,0,40.456,18.148,40.456,40.457v6.459H73.434V317.876z"/>
</g>
</svg>