<svg width="15" height="14" viewBox="0 0 15 14" fill="none" xmlns="http://www.w3.org/2000/svg">
<path d="M13.2143 0.333344H1.78275C1.25894 0.333344 0.833344 0.764891 0.833344 1.29465V12.7054C0.833344 13.2351 1.25894 13.6667 1.78275 13.6667H13.2143C13.7381 13.6667 14.1667 13.2351 14.1667 12.7054V1.29465C14.1667 0.764891 13.7381 0.333344 13.2143 0.333344ZM4.86311 11.7619H2.88692V5.39882H4.86608V11.7619H4.86311ZM3.87501 4.52977C3.24108 4.52977 2.72918 4.01489 2.72918 3.38394C2.72918 2.75299 3.24108 2.23811 3.87501 2.23811C4.50596 2.23811 5.02084 2.75299 5.02084 3.38394C5.02084 4.01787 4.50894 4.52977 3.87501 4.52977V4.52977ZM12.2708 11.7619H10.2947V8.66668C10.2947 7.92858 10.2798 6.97918 9.26787 6.97918C8.23811 6.97918 8.08037 7.78275 8.08037 8.61311V11.7619H6.10418V5.39882H8.00001V6.26787H8.0268C8.29168 5.76787 8.93751 5.24108 9.89882 5.24108C11.8988 5.24108 12.2708 6.55953 12.2708 8.27382V11.7619V11.7619Z" fill="white"/>
</svg>
